<svg width="115" height="176" fill="none" xmlns="http://www.w3.org/2000/svg"><g filter="url(#prefix__filter0_d_855_3943)"><path d="M2.607 9.64A9.308 9.308 0 0111.915.334H103.3a9.307 9.307 0 019.307 9.308v152.844a9.307 9.307 0 01-9.307 9.307H11.915a9.307 9.307 0 01-9.308-9.307V9.641z" fill="url(#prefix__paint0_linear_855_3943)"/></g><text dx="40" dy="146" dominant-baseline="central" text-anchor="middle" style="height:100px" font-size="8" fill="#000">TestCampaign</text><text dx="37" dy="15" dominant-baseline="central" text-anchor="middle" style="height:100px" font-size="7" fill="#000">0x7e5f...5bdf</text><text dx="57" dy="112" dominant-baseline="central" text-anchor="middle" style="height:100px" font-size="9" fill="#000">Bravo</text><text dx="29" dy="158" dominant-baseline="central" text-anchor="middle" style="height:100px" font-size="8" fill="#000">30 Days</text><text dx="58" dy="134" dominant-baseline="central" text-anchor="middle" style="height:100px" font-size="6" fill="#000">100%</text><rect x="12.607" y="120.544" width="90" height="6.655" rx="3.327" fill="#fff"/><rect x="12.607" y="120.59" width="90" height="6.609" rx="3.304" fill="#FD93FF"/><path d="M96.018 82.06c-.634 1.376-2.22 2.347-4.766 2.815-2.53.465-5.89.408-9.862-.16-7.938-1.138-18.204-4.3-28.905-9.229-10.7-4.928-19.776-10.675-25.799-15.97-3.014-2.648-5.241-5.165-6.532-7.39-1.3-2.239-1.591-4.075-.957-5.451.633-1.377 2.219-2.348 4.765-2.816 2.53-.465 5.89-.408 9.862.16 7.938 1.137 18.204 4.3 28.905 9.229 10.7 4.928 19.776 10.675 25.8 15.969 3.013 2.65 5.24 5.166 6.531 7.39 1.3 2.24 1.592 4.076.958 5.452z" stroke="#FD93FF"/><path d="M32.083 61.53l4.008 17.815a2 2 0 001.951 1.56h39.776a2 2 0 001.962-1.615l3.502-17.905c.314-1.609-1.334-2.892-2.817-2.192l-9.025 4.26a2 2 0 01-2.578-.794l-9.131-15.524a2 2 0 00-3.404-.073L46.174 62.755a2 2 0 01-2.543.717l-8.732-4.184c-1.507-.722-3.182.613-2.815 2.243z" stroke="#8067C7" stroke-width="2"/><circle cx="58.071" cy="42.77" r="2.7" stroke="#8067C7" stroke-width="2"/><circle cx="83.279" cy="56.272" r="2.7" stroke="#8067C7" stroke-width="2"/><circle cx="32.144" cy="56.272" r="2.7" stroke="#8067C7" stroke-width="2"/><path d="M96.466 150.927l-.05.049-.053-.049c-2.324-2.109-3.86-3.504-3.86-4.918 0-.978.733-1.712 1.712-1.712.753 0 1.487.489 1.747 1.154h.91c.26-.665.993-1.154 1.747-1.154.978 0 1.712.734 1.712 1.712 0 1.414-1.536 2.809-3.865 4.918zm2.153-7.609a2.94 2.94 0 00-2.202 1.018 2.941 2.941 0 00-2.202-1.018 2.662 2.662 0 00-2.692 2.691c0 1.845 1.664 3.357 4.184 5.642l.71.646.71-.646c2.52-2.285 4.183-3.797 4.183-5.642a2.662 2.662 0 00-2.691-2.691z" fill="#000"/><defs><linearGradient id="prefix__paint0_linear_855_3943" x1="59.096" y1=".333" x2="59.096" y2="171.792" gradientUnits="userSpaceOnUse"><stop stop-color="#D7ECFF"/><stop offset="1" stop-color="#FCD3FF"/></linearGradient><filter id="prefix__filter0_d_855_3943" x=".746" y=".333" width="113.723" height="175.182" filterUnits="userSpaceOnUse" color-interpolation-filters="sRGB"><feFlood flood-opacity="0" result="BackgroundImageFix"/><feColorMatrix in="SourceAlpha" values="0 0 0 0 0 0 0 0 0 0 0 0 0 0 0 0 0 0 127 0" result="hardAlpha"/><feOffset dy="1.862"/><feGaussianBlur stdDeviation=".931"/><feComposite in2="hardAlpha" operator="out"/><feColorMatrix values="0 0 0 0 0 0 0 0 0 0 0 0 0 0 0 0 0 0 0.25 0"/><feBlend in2="BackgroundImageFix" result="effect1_dropShadow_855_3943"/><feBlend in="SourceGraphic" in2="effect1_dropShadow_855_3943" result="shape"/></filter></defs></svg>