<svg width="115" height="176" fill="none" xmlns="http://www.w3.org/2000/svg"><g filter="url(#prefix__filter0_d_855_3943)"><path d="M2.607 9.64A9.308 9.308 0 0111.915.334H103.3a9.307 9.307 0 019.307 9.308v152.844a9.307 9.307 0 01-9.307 9.307H11.915a9.307 9.307 0 01-9.308-9.307V9.641z" fill="url(#prefix__paint0_linear_855_3943)"/></g><text dx="40" dy="146" dominant-baseline="central" text-anchor="middle" style="height:100px" font-size="8" fill="#000">TestCampaign</text><text dx="37" dy="15" dominant-baseline="central" text-anchor="middle" style="height:100px" font-size="7" fill="#000">0x7e5f...5bdf</text><text dx="57" dy="112" dominant-baseline="central" text-anchor="middle" style="height:100px" font-size="9" fill="#000">Failed</text><text dx="29" dy="158" dominant-baseline="central" text-anchor="middle" style="height:100px" font-size="8" fill="#000">30 Days</text><text dx="58" dy="134" dominant-baseline="central" text-anchor="middle" style="height:100px" font-size="6" fill="#000">100%</text><rect x="12.607" y="120.544" width="90" height="6.655" rx="3.327" fill="#fff"/><rect x="12.607" y="120.59" width="90" height="6.609" rx="3.304" fill="#FD93FF"/><path d="M94.595 79.758c-.5 1.312-1.908 2.316-4.254 2.913-2.33.594-5.47.753-9.217.473-7.487-.56-17.278-2.865-27.59-6.794-10.31-3.93-19.152-8.725-25.113-13.29-2.983-2.284-5.22-4.493-6.565-6.486-1.354-2.008-1.736-3.694-1.236-5.006.5-1.312 1.907-2.316 4.254-2.913 2.33-.594 5.47-.753 9.217-.473 7.487.56 17.278 2.865 27.589 6.794 10.31 3.93 19.153 8.725 25.113 13.29 2.983 2.284 5.221 4.493 6.566 6.486 1.353 2.008 1.736 3.694 1.236 5.006z" stroke="#FD93FF"/><path d="M50.844 46.246l3.072 28.664a3 3 0 002.983 2.68h1.132a3 3 0 002.98-2.654l3.327-28.664a3 3 0 00-2.98-3.346h-7.531a3 3 0 00-2.983 3.32z" stroke="#8067C7" stroke-width="2" stroke-linejoin="round"/><circle cx="57.607" cy="86.519" r="5.485" stroke="#8067C7" stroke-width="2"/><path d="M96.466 150.927l-.05.049-.053-.049c-2.324-2.109-3.86-3.504-3.86-4.918 0-.978.733-1.712 1.712-1.712.753 0 1.487.489 1.747 1.154h.91c.26-.665.993-1.154 1.747-1.154.978 0 1.712.734 1.712 1.712 0 1.414-1.536 2.809-3.865 4.918zm2.153-7.609a2.94 2.94 0 00-2.202 1.018 2.941 2.941 0 00-2.202-1.018 2.662 2.662 0 00-2.692 2.691c0 1.845 1.664 3.357 4.184 5.642l.71.646.71-.646c2.52-2.285 4.183-3.797 4.183-5.642a2.662 2.662 0 00-2.691-2.691z" fill="#000"/><defs><linearGradient id="prefix__paint0_linear_855_3943" x1="59.096" y1=".333" x2="59.096" y2="171.792" gradientUnits="userSpaceOnUse"><stop stop-color="#D7ECFF"/><stop offset="1" stop-color="#FCD3FF"/></linearGradient><filter id="prefix__filter0_d_855_3943" x=".746" y=".333" width="113.723" height="175.182" filterUnits="userSpaceOnUse" color-interpolation-filters="sRGB"><feFlood flood-opacity="0" result="BackgroundImageFix"/><feColorMatrix in="SourceAlpha" values="0 0 0 0 0 0 0 0 0 0 0 0 0 0 0 0 0 0 127 0" result="hardAlpha"/><feOffset dy="1.862"/><feGaussianBlur stdDeviation=".931"/><feComposite in2="hardAlpha" operator="out"/><feColorMatrix values="0 0 0 0 0 0 0 0 0 0 0 0 0 0 0 0 0 0 0.25 0"/><feBlend in2="BackgroundImageFix" result="effect1_dropShadow_855_3943"/><feBlend in="SourceGraphic" in2="effect1_dropShadow_855_3943" result="shape"/></filter></defs></svg>